<?xml version="1.0" encoding="UTF-8"?>
<svg xmlns="http://www.w3.org/2000/svg" width="1440" height="1024" viewBox="0 0 1440 1024" role="img" aria-label="10 Wishlist final mockup">
  <defs>
    <radialGradient id="warmGlow" cx="0.08" cy="0.04" r="0.68">
      <stop offset="0" stop-color="#cbae63" stop-opacity="0.30"/>
      <stop offset="0.46" stop-color="#f6f1e8" stop-opacity="0.82"/>
      <stop offset="1" stop-color="#f6f1e8"/>
    </radialGradient>
    <filter id="shadow" x="-12%" y="-12%" width="124%" height="136%">
      <feDropShadow dx="0" dy="14" stdDeviation="14" flood-color="#4d3319" flood-opacity="0.10"/>
    </filter>
  </defs>
  <rect x="0" y="0" width="1440" height="1024" rx="0" fill="url(#warmGlow)"/>
  <g>
    <rect x="0" y="0" width="1440" height="80" rx="0" fill="#f6f1e8" stroke="#d8c8b0" stroke-width="1" opacity="0.96"/>
    <text x="120" y="51" fill="#1f1a14" font-family="Fraunces, Georgia, serif" font-size="25" font-weight="800"><tspan x="120" dy="0">Gift Suggestion</tspan></text>
    <text x="756" y="49" fill="#625746" font-family="Manrope, Segoe UI, sans-serif" font-size="16" font-weight="700"><tspan x="756" dy="0">Каталог</tspan></text><text x="842" y="49" fill="#625746" font-family="Manrope, Segoe UI, sans-serif" font-size="16" font-weight="700"><tspan x="842" dy="0">Как это работает</tspan></text>
    <g>
    <rect x="1040" y="24" width="180" height="32" rx="999" fill="#efe6d6" stroke="#d8c8b0" stroke-width="1"/>
    <text x="1055" y="45" fill="#1f1a14" font-family="Manrope, Segoe UI, sans-serif" font-size="13" font-weight="800"><tspan x="1055" dy="0">angelina@example.com</tspan></text>
  </g><g opacity="1">
    <rect x="1240" y="18" width="80" height="44" rx="999" fill="#fffdf8" stroke="#d8c8b0" stroke-width="1"/>
    <text x="1280" y="46" fill="#1f1a14" font-family="Manrope, Segoe UI, sans-serif" font-size="13" font-weight="800" text-anchor="middle">Профиль</text>
  </g>
  </g>
  
    <g transform="translate(120 118)">
      <text x="0" y="0" fill="#c65a1e" font-family="Manrope, Segoe UI, sans-serif" font-size="13" font-weight="800"><tspan x="0" dy="0">WISHLIST</tspan></text>
      <text x="0" y="58" fill="#1f1a14" font-family="Fraunces, Georgia, serif" font-size="46" font-weight="700"><tspan x="0" dy="0">Сохранённые идеи подарков.</tspan></text>
      <g opacity="1">
    <rect x="1002" y="8" width="198" height="50" rx="999" fill="#c65a1e" stroke="transparent" stroke-width="1"/>
    <text x="1101" y="39" fill="#ffffff" font-family="Manrope, Segoe UI, sans-serif" font-size="16" font-weight="800" text-anchor="middle">Новый список</text>
  </g>
      <g transform="translate(0 140)">
    <rect x="0" y="0" width="318" height="574" rx="24" fill="#fffdf8" stroke="#d8c8b0" stroke-width="1" filter="url(#shadow)"/>
    
        <text x="28" y="58" fill="#1f1a14" font-family="Fraunces, Georgia, serif" font-size="28" font-weight="700"><tspan x="28" dy="0">Списки</tspan></text>
        <g transform="translate(28 96)">
    <rect x="0" y="0" width="262" height="74" rx="14" fill="#dbe9e2" stroke="#245c4a" stroke-width="1"/>
    <text x="24" y="46" fill="#1f1a14" font-family="Manrope, Segoe UI, sans-serif" font-size="19" font-weight="900"><tspan x="24" dy="0">День рождения</tspan></text><text x="224" y="46" fill="#c65a1e" font-family="Manrope, Segoe UI, sans-serif" font-size="18" font-weight="900"><tspan x="224" dy="0">5</tspan></text>
  </g>
        <g transform="translate(28 188)">
    <rect x="0" y="0" width="262" height="74" rx="14" fill="#fffdf8" stroke="#d8c8b0" stroke-width="1"/>
    <text x="24" y="46" fill="#1f1a14" font-family="Manrope, Segoe UI, sans-serif" font-size="19" font-weight="900"><tspan x="24" dy="0">Новый год</tspan></text><text x="224" y="46" fill="#625746" font-family="Manrope, Segoe UI, sans-serif" font-size="18" font-weight="500"><tspan x="224" dy="0">7</tspan></text>
  </g>
        <g transform="translate(28 280)">
    <rect x="0" y="0" width="262" height="74" rx="14" fill="#fffdf8" stroke="#d8c8b0" stroke-width="1"/>
    <text x="24" y="46" fill="#1f1a14" font-family="Manrope, Segoe UI, sans-serif" font-size="19" font-weight="900"><tspan x="24" dy="0">Коллегам</tspan></text><text x="224" y="46" fill="#625746" font-family="Manrope, Segoe UI, sans-serif" font-size="18" font-weight="500"><tspan x="224" dy="0">2</tspan></text>
  </g>
      
  </g>
      <g transform="translate(356 140)">
    <rect x="0" y="0" width="392" height="252" rx="22" fill="#fffdf8" stroke="#d8c8b0" stroke-width="1" filter="url(#shadow)"/>
    <g>
    <rect x="14" y="14" width="364" height="100" rx="20" fill="#245c4a"/>
    <path d="M14 96 C105 72, 203.28 107, 378 74 L378 114 L14 114 Z" fill="#cbae63" opacity="0.78"/>
    <circle cx="297.92" cy="38" r="12" fill="#fffdf8" opacity="0.78"/>
    <rect x="79.52" y="44" width="116.48" height="32" rx="14" fill="#fffdf8" opacity="0.74"/>
    <line x1="137.76" y1="44" x2="137.76" y2="76" stroke="#cbae63" stroke-width="5" opacity="0.85"/>
    <line x1="79.52" y1="57" x2="196" y2="57" stroke="#cbae63" stroke-width="5" opacity="0.85"/>
  </g>
    <g>
    <rect x="20" y="128" width="106" height="32" rx="999" fill="#efe6d6" stroke="#d8c8b0" stroke-width="1"/>
    <text x="35" y="149" fill="#1f1a14" font-family="Manrope, Segoe UI, sans-serif" font-size="13" font-weight="800"><tspan x="35" dy="0">Для дома</tspan></text>
  </g>
    <text x="20" y="180" fill="#1f1a14" font-family="Fraunces, Georgia, serif" font-size="22" font-weight="700"><tspan x="20" dy="0">Кофейный сет</tspan></text>
    <text x="372" y="180" fill="#1f1a14" font-family="Manrope, Segoe UI, sans-serif" font-size="17" font-weight="900" text-anchor="end"><tspan x="372" dy="0">2 790 ₽</tspan></text>
    
    <g opacity="1">
    <rect x="20" y="194" width="132" height="40" rx="999" fill="#fffdf8" stroke="#d8c8b0" stroke-width="1"/>
    <text x="86" y="220" fill="#1f1a14" font-family="Manrope, Segoe UI, sans-serif" font-size="13" font-weight="800" text-anchor="middle">Подробнее</text>
  </g>
    <g opacity="1">
    <rect x="248" y="194" width="124" height="40" rx="999" fill="#c65a1e" stroke="transparent" stroke-width="1"/>
    <text x="310" y="220" fill="#ffffff" font-family="Manrope, Segoe UI, sans-serif" font-size="13" font-weight="800" text-anchor="middle">Купить</text>
  </g>
  </g>
      <g transform="translate(808 140)">
    <rect x="0" y="0" width="392" height="252" rx="22" fill="#fffdf8" stroke="#d8c8b0" stroke-width="1" filter="url(#shadow)"/>
    <g>
    <rect x="14" y="14" width="364" height="100" rx="20" fill="#f0c987"/>
    <path d="M14 96 C105 72, 203.28 107, 378 74 L378 114 L14 114 Z" fill="#c65a1e" opacity="0.78"/>
    <circle cx="297.92" cy="38" r="12" fill="#fffdf8" opacity="0.78"/>
    <rect x="79.52" y="44" width="116.48" height="32" rx="14" fill="#fffdf8" opacity="0.74"/>
    <line x1="137.76" y1="44" x2="137.76" y2="76" stroke="#c65a1e" stroke-width="5" opacity="0.85"/>
    <line x1="79.52" y1="57" x2="196" y2="57" stroke="#c65a1e" stroke-width="5" opacity="0.85"/>
  </g>
    <g>
    <rect x="20" y="128" width="96" height="32" rx="999" fill="#efe6d6" stroke="#d8c8b0" stroke-width="1"/>
    <text x="35" y="149" fill="#1f1a14" font-family="Manrope, Segoe UI, sans-serif" font-size="13" font-weight="800"><tspan x="35" dy="0">Уют</tspan></text>
  </g>
    <text x="20" y="180" fill="#1f1a14" font-family="Fraunces, Georgia, serif" font-size="22" font-weight="700"><tspan x="20" dy="0">Плед из мериноса</tspan></text>
    <text x="372" y="180" fill="#1f1a14" font-family="Manrope, Segoe UI, sans-serif" font-size="17" font-weight="900" text-anchor="end"><tspan x="372" dy="0">5 490 ₽</tspan></text>
    
    <g opacity="1">
    <rect x="20" y="194" width="132" height="40" rx="999" fill="#fffdf8" stroke="#d8c8b0" stroke-width="1"/>
    <text x="86" y="220" fill="#1f1a14" font-family="Manrope, Segoe UI, sans-serif" font-size="13" font-weight="800" text-anchor="middle">Подробнее</text>
  </g>
    <g opacity="1">
    <rect x="248" y="194" width="124" height="40" rx="999" fill="#c65a1e" stroke="transparent" stroke-width="1"/>
    <text x="310" y="220" fill="#ffffff" font-family="Manrope, Segoe UI, sans-serif" font-size="13" font-weight="800" text-anchor="middle">Купить</text>
  </g>
  </g>
      <g transform="translate(356 430)">
    <rect x="0" y="0" width="392" height="252" rx="22" fill="#fffdf8" stroke="#d8c8b0" stroke-width="1" filter="url(#shadow)"/>
    <g>
    <rect x="14" y="14" width="364" height="100" rx="20" fill="#f3d5c7"/>
    <path d="M14 96 C105 72, 203.28 107, 378 74 L378 114 L14 114 Z" fill="#b13a2f" opacity="0.78"/>
    <circle cx="297.92" cy="38" r="12" fill="#fffdf8" opacity="0.78"/>
    <rect x="79.52" y="44" width="116.48" height="32" rx="14" fill="#fffdf8" opacity="0.74"/>
    <line x1="137.76" y1="44" x2="137.76" y2="76" stroke="#b13a2f" stroke-width="5" opacity="0.85"/>
    <line x1="79.52" y1="57" x2="196" y2="57" stroke="#b13a2f" stroke-width="5" opacity="0.85"/>
  </g>
    <g>
    <rect x="20" y="128" width="133" height="32" rx="999" fill="#efe6d6" stroke="#d8c8b0" stroke-width="1"/>
    <text x="35" y="149" fill="#1f1a14" font-family="Manrope, Segoe UI, sans-serif" font-size="13" font-weight="800"><tspan x="35" dy="0">Впечатления</tspan></text>
  </g>
    <text x="20" y="180" fill="#1f1a14" font-family="Fraunces, Georgia, serif" font-size="22" font-weight="700"><tspan x="20" dy="0">Сертификат SPA</tspan></text>
    <text x="372" y="180" fill="#1f1a14" font-family="Manrope, Segoe UI, sans-serif" font-size="17" font-weight="900" text-anchor="end"><tspan x="372" dy="0">6 500 ₽</tspan></text>
    
    <g opacity="1">
    <rect x="20" y="194" width="132" height="40" rx="999" fill="#fffdf8" stroke="#d8c8b0" stroke-width="1"/>
    <text x="86" y="220" fill="#1f1a14" font-family="Manrope, Segoe UI, sans-serif" font-size="13" font-weight="800" text-anchor="middle">Подробнее</text>
  </g>
    <g opacity="1">
    <rect x="248" y="194" width="124" height="40" rx="999" fill="#c65a1e" stroke="transparent" stroke-width="1"/>
    <text x="310" y="220" fill="#ffffff" font-family="Manrope, Segoe UI, sans-serif" font-size="13" font-weight="800" text-anchor="middle">Купить</text>
  </g>
  </g>
      <g transform="translate(808 430)">
    <rect x="0" y="0" width="392" height="252" rx="24" fill="#fffdf8" stroke="#d8c8b0" stroke-width="1" filter="url(#shadow)"/>
    
        <text x="32" y="58" fill="#1f1a14" font-family="Fraunces, Georgia, serif" font-size="30" font-weight="700"><tspan x="32" dy="0">Пустой список</tspan></text>
        <text x="32" y="108" fill="#625746" font-family="Manrope, Segoe UI, sans-serif" font-size="16" font-weight="500"><tspan x="32" dy="0">Когда список пустой, показываем CTA</tspan><tspan x="32" dy="22">в каталог без фиктивных рекомендаций.</tspan></text>
        <g opacity="1">
    <rect x="32" y="174" width="178" height="50" rx="999" fill="#245c4a" stroke="transparent" stroke-width="1"/>
    <text x="121" y="205" fill="#ffffff" font-family="Manrope, Segoe UI, sans-serif" font-size="16" font-weight="800" text-anchor="middle">Открыть каталог</text>
  </g>
      
  </g>
    </g>
</svg>
