<?xml version="1.0" encoding="UTF-8"?>
<svg xmlns="http://www.w3.org/2000/svg" width="1440" height="1024" viewBox="0 0 1440 1024" role="img" aria-label="14 System states final mockup">
  <defs>
    <radialGradient id="warmGlow" cx="0.08" cy="0.04" r="0.68">
      <stop offset="0" stop-color="#cbae63" stop-opacity="0.30"/>
      <stop offset="0.46" stop-color="#f6f1e8" stop-opacity="0.82"/>
      <stop offset="1" stop-color="#f6f1e8"/>
    </radialGradient>
    <filter id="shadow" x="-12%" y="-12%" width="124%" height="136%">
      <feDropShadow dx="0" dy="14" stdDeviation="14" flood-color="#4d3319" flood-opacity="0.10"/>
    </filter>
  </defs>
  <rect x="0" y="0" width="1440" height="1024" rx="0" fill="url(#warmGlow)"/>
  <g>
    <rect x="0" y="0" width="1440" height="80" rx="0" fill="#f6f1e8" stroke="#d8c8b0" stroke-width="1" opacity="0.96"/>
    <text x="120" y="51" fill="#1f1a14" font-family="Fraunces, Georgia, serif" font-size="25" font-weight="800"><tspan x="120" dy="0">Gift Suggestion</tspan></text>
    <text x="756" y="49" fill="#1f1a14" font-family="Manrope, Segoe UI, sans-serif" font-size="16" font-weight="900"><tspan x="756" dy="0">Каталог</tspan></text><text x="842" y="49" fill="#625746" font-family="Manrope, Segoe UI, sans-serif" font-size="16" font-weight="700"><tspan x="842" dy="0">Как это работает</tspan></text>
    <text x="1068" y="49" fill="#625746" font-family="Manrope, Segoe UI, sans-serif" font-size="16" font-weight="700"><tspan x="1068" dy="0">Войти</tspan></text><g opacity="1">
    <rect x="1140" y="18" width="172" height="44" rx="999" fill="#245c4a" stroke="transparent" stroke-width="1"/>
    <text x="1226" y="46" fill="#ffffff" font-family="Manrope, Segoe UI, sans-serif" font-size="14" font-weight="800" text-anchor="middle">Регистрация</text>
  </g>
  </g>
  
    <g transform="translate(120 118)">
      <text x="0" y="0" fill="#c65a1e" font-family="Manrope, Segoe UI, sans-serif" font-size="13" font-weight="800"><tspan x="0" dy="0">SYSTEM STATES</tspan></text>
      <text x="0" y="58" fill="#1f1a14" font-family="Fraunces, Georgia, serif" font-size="46" font-weight="700"><tspan x="0" dy="0">Loading, empty, error и success.</tspan></text>
      <g transform="translate(0 136)">
    <rect x="0" y="0" width="374" height="252" rx="24" fill="#fffdf8" stroke="#d8c8b0" stroke-width="1" filter="url(#shadow)"/>
    
        <text x="28" y="58" fill="#1f1a14" font-family="Fraunces, Georgia, serif" font-size="28" font-weight="700"><tspan x="28" dy="0">Loading</tspan></text>
        <rect x="28" y="96" width="308" height="18" rx="999" fill="#efe6d6"/>
        <rect x="28" y="132" width="246" height="18" rx="999" fill="#fbf5ea"/>
        <rect x="28" y="168" width="308" height="58" rx="16" fill="#efe6d6"/>
      
  </g>
      <g transform="translate(413 136)">
    <rect x="0" y="0" width="374" height="252" rx="24" fill="#fffdf8" stroke="#d8c8b0" stroke-width="1" filter="url(#shadow)"/>
    
        <text x="28" y="58" fill="#1f1a14" font-family="Fraunces, Georgia, serif" font-size="28" font-weight="700"><tspan x="28" dy="0">Empty</tspan></text>
        <text x="28" y="108" fill="#625746" font-family="Manrope, Segoe UI, sans-serif" font-size="16" font-weight="500"><tspan x="28" dy="0">Каталог ничего не вернул.</tspan><tspan x="28" dy="22">Предлагаем сбросить фильтры.</tspan></text>
        <g opacity="1">
    <rect x="28" y="174" width="156" height="50" rx="999" fill="#245c4a" stroke="transparent" stroke-width="1"/>
    <text x="106" y="205" fill="#ffffff" font-family="Manrope, Segoe UI, sans-serif" font-size="16" font-weight="800" text-anchor="middle">Сбросить</text>
  </g>
      
  </g>
      <g transform="translate(826 136)">
    <rect x="0" y="0" width="374" height="252" rx="24" fill="#fffdf8" stroke="#d8c8b0" stroke-width="1" filter="url(#shadow)"/>
    
        <text x="28" y="58" fill="#1f1a14" font-family="Fraunces, Georgia, serif" font-size="28" font-weight="700"><tspan x="28" dy="0">Error</tspan></text>
        <g transform="translate(28 94)">
    <rect x="0" y="0" width="304" height="62" rx="16" fill="#f6ddd8" stroke="#e1b7af" stroke-width="1"/>
    <text x="24" y="38" fill="#b13a2f" font-family="Manrope, Segoe UI, sans-serif" font-size="16" font-weight="800"><tspan x="24" dy="0">Не удалось загрузить данные</tspan></text>
  </g>
        <g opacity="1">
    <rect x="28" y="174" width="164" height="50" rx="999" fill="#c65a1e" stroke="transparent" stroke-width="1"/>
    <text x="110" y="205" fill="#ffffff" font-family="Manrope, Segoe UI, sans-serif" font-size="16" font-weight="800" text-anchor="middle">Повторить</text>
  </g>
      
  </g>
      <g transform="translate(0 428)">
    <rect x="0" y="0" width="374" height="252" rx="24" fill="#fffdf8" stroke="#d8c8b0" stroke-width="1" filter="url(#shadow)"/>
    
        <text x="28" y="58" fill="#1f1a14" font-family="Fraunces, Georgia, serif" font-size="28" font-weight="700"><tspan x="28" dy="0">Success</tspan></text>
        <g transform="translate(28 96)">
    <rect x="0" y="0" width="304" height="62" rx="16" fill="#dcebdd" stroke="#b9d3be" stroke-width="1"/>
    <text x="24" y="38" fill="#2f7a4a" font-family="Manrope, Segoe UI, sans-serif" font-size="16" font-weight="800"><tspan x="24" dy="0">Письмо отправлено</tspan></text>
  </g>
      
  </g>
      <g transform="translate(413 428)">
    <rect x="0" y="0" width="374" height="252" rx="24" fill="#fffdf8" stroke="#d8c8b0" stroke-width="1" filter="url(#shadow)"/>
    
        <text x="28" y="58" fill="#1f1a14" font-family="Fraunces, Georgia, serif" font-size="28" font-weight="700"><tspan x="28" dy="0">Unauthorized</tspan></text>
        <text x="28" y="108" fill="#625746" font-family="Manrope, Segoe UI, sans-serif" font-size="16" font-weight="500"><tspan x="28" dy="0">Для wishlist и подборок</tspan><tspan x="28" dy="22">нужно войти в аккаунт.</tspan></text>
        <g opacity="1">
    <rect x="28" y="174" width="136" height="50" rx="999" fill="#c65a1e" stroke="transparent" stroke-width="1"/>
    <text x="96" y="205" fill="#ffffff" font-family="Manrope, Segoe UI, sans-serif" font-size="16" font-weight="800" text-anchor="middle">Войти</text>
  </g>
      
  </g>
      <g transform="translate(826 428)">
    <rect x="0" y="0" width="374" height="252" rx="24" fill="#fffdf8" stroke="#d8c8b0" stroke-width="1" filter="url(#shadow)"/>
    
        <text x="28" y="58" fill="#1f1a14" font-family="Fraunces, Georgia, serif" font-size="28" font-weight="700"><tspan x="28" dy="0">Not found</tspan></text>
        <text x="28" y="108" fill="#625746" font-family="Manrope, Segoe UI, sans-serif" font-size="16" font-weight="500"><tspan x="28" dy="0">Страница или подарок</tspan><tspan x="28" dy="22">не найдены.</tspan></text>
        <g opacity="1">
    <rect x="28" y="174" width="158" height="50" rx="999" fill="#245c4a" stroke="transparent" stroke-width="1"/>
    <text x="107" y="205" fill="#ffffff" font-family="Manrope, Segoe UI, sans-serif" font-size="16" font-weight="800" text-anchor="middle">В каталог</text>
  </g>
      
  </g>
      <g transform="translate(0 730)">
    <rect x="0" y="0" width="1200" height="82" rx="16" fill="#dbe9e2" stroke="#bdd5ca" stroke-width="1"/>
    <text x="24" y="38" fill="#245c4a" font-family="Manrope, Segoe UI, sans-serif" font-size="16" font-weight="800"><tspan x="24" dy="0">Все состояния используют текущие banner, empty-state, skeleton</tspan><tspan x="24" dy="22">и button паттерны из frontend Slice 1.</tspan></text>
  </g>
    </g>
</svg>
